<?xml version="1.0" encoding="utf-8"?>
<svg xmlns="http://www.w3.org/2000/svg" xmlns:xlink="http://www.w3.org/1999/xlink">
    <symbol id="account" fill="currentColor"  viewBox="0 0 24 24" ><path d="M0 0h24v24H0z" fill="none"/><path d="M3 5v14c0 1.1.89 2 2 2h14c1.1 0 2-.9 2-2V5c0-1.1-.9-2-2-2H5c-1.11 0-2 .9-2 2zm12 4c0 1.66-1.34 3-3 3s-3-1.34-3-3 1.34-3 3-3 3 1.34 3 3zm-9 8c0-2 4-3.1 6-3.1s6 1.1 6 3.1v1H6v-1z"/></symbol>
    <symbol id="account-line" fill="currentColor"  viewBox="0 0 24 24" ><path d="M0 0h24v24H0V0z" fill="none"/><path d="M19 5v14H5V5h14m0-2H5c-1.11 0-2 .9-2 2v14c0 1.1.89 2 2 2h14c1.1 0 2-.9 2-2V5c0-1.1-.9-2-2-2zm-7 9c-1.65 0-3-1.35-3-3s1.35-3 3-3 3 1.35 3 3-1.35 3-3 3zm0-4c-.55 0-1 .45-1 1s.45 1 1 1 1-.45 1-1-.45-1-1-1zm6 10H6v-1.53c0-2.5 3.97-3.58 6-3.58s6 1.08 6 3.58V18zm-9.69-2h7.38c-.69-.56-2.38-1.12-3.69-1.12s-3.01.56-3.69 1.12z"/></symbol>
    <symbol id="account-manager" fill="currentColor" enable-background="new 0 0 24 24" viewBox="0 0 24 24"><g><path d="M0,0h24v24H0V0z" fill="none"/></g><g><g><circle cx="10" cy="8" r="4"/><path d="M10.67,13.02C10.45,13.01,10.23,13,10,13c-2.42,0-4.68,0.67-6.61,1.82C2.51,15.34,2,16.32,2,17.35V20h9.26 C10.47,18.87,10,17.49,10,16C10,14.93,10.25,13.93,10.67,13.02z"/><path d="M20.75,16c0-0.22-0.03-0.42-0.06-0.63l1.14-1.01l-1-1.73l-1.45,0.49c-0.32-0.27-0.68-0.48-1.08-0.63L18,11h-2l-0.3,1.49 c-0.4,0.15-0.76,0.36-1.08,0.63l-1.45-0.49l-1,1.73l1.14,1.01c-0.03,0.21-0.06,0.41-0.06,0.63s0.03,0.42,0.06,0.63l-1.14,1.01 l1,1.73l1.45-0.49c0.32,0.27,0.68,0.48,1.08,0.63L16,21h2l0.3-1.49c0.4-0.15,0.76-0.36,1.08-0.63l1.45,0.49l1-1.73l-1.14-1.01 C20.72,16.42,20.75,16.22,20.75,16z M17,18c-1.1,0-2-0.9-2-2s0.9-2,2-2s2,0.9,2,2S18.1,18,17,18z"/></g></g></symbol>
    <symbol id="add-circle" fill="currentColor" viewBox="0 0 24 24"><path d="M0 0h24v24H0z" fill="none"/><path d="M13 7h-2v4H7v2h4v4h2v-4h4v-2h-4V7zm-1-5C6.48 2 2 6.48 2 12s4.48 10 10 10 10-4.48 10-10S17.52 2 12 2zm0 18c-4.41 0-8-3.59-8-8s3.59-8 8-8 8 3.59 8 8-3.59 8-8 8z"/></symbol>
    <symbol id="add-image" fill="currentColor"  viewBox="0 0 24 24"><path d="M0 0h24v24H0V0z" fill="none"/><path d="M18 20H4V6h9V4H4c-1.1 0-2 .9-2 2v14c0 1.1.9 2 2 2h14c1.1 0 2-.9 2-2v-9h-2v9zm-7.79-3.17l-1.96-2.36L5.5 18h11l-3.54-4.71zM20 4V1h-2v3h-3c.01.01 0 2 0 2h3v2.99c.01.01 2 0 2 0V6h3V4h-3z"/></symbol>
    <symbol id="api" fill="currentColor" enable-background="new 0 0 24 24"  viewBox="0 0 24 24" ><g><rect fill="none" height="24" width="24"/><path d="M14,12l-2,2l-2-2l2-2L14,12z M12,6l2.12,2.12l2.5-2.5L12,1L7.38,5.62l2.5,2.5L12,6z M6,12l2.12-2.12l-2.5-2.5L1,12 l4.62,4.62l2.5-2.5L6,12z M18,12l-2.12,2.12l2.5,2.5L23,12l-4.62-4.62l-2.5,2.5L18,12z M12,18l-2.12-2.12l-2.5,2.5L12,23l4.62-4.62 l-2.5-2.5L12,18z"/></g></symbol>
    <symbol id="arm" fill="currentColor" viewBox="0 0 24 24"><path d="M0 0h24v24H0z" fill="none"/><path d="M22 5.72l-4.6-3.86-1.29 1.53 4.6 3.86L22 5.72zM7.88 3.39L6.6 1.86 2 5.71l1.29 1.53 4.59-3.85zM12.5 8H11v6l4.75 2.85.75-1.23-4-2.37V8zM12 4c-4.97 0-9 4.03-9 9s4.02 9 9 9c4.97 0 9-4.03 9-9s-4.03-9-9-9zm0 16c-3.87 0-7-3.13-7-7s3.13-7 7-7 7 3.13 7 7-3.13 7-7 7z"/></symbol>
    <symbol id="arrow-back" fill="currentColor" viewBox="0 0 24 24"><path d="M0 0h24v24H0z" fill="none"/><path d="M20 11H7.83l5.59-5.59L12 4l-8 8 8 8 1.41-1.41L7.83 13H20v-2z"/></symbol>
    <symbol id="assignment" fill="currentColor"  viewBox="0 0 24 24" ><path d="M0 0h24v24H0z" fill="none"/><path d="M19 3h-4.18C14.4 1.84 13.3 1 12 1c-1.3 0-2.4.84-2.82 2H5c-1.1 0-2 .9-2 2v14c0 1.1.9 2 2 2h14c1.1 0 2-.9 2-2V5c0-1.1-.9-2-2-2zm-7 0c.55 0 1 .45 1 1s-.45 1-1 1-1-.45-1-1 .45-1 1-1zm0 4c1.66 0 3 1.34 3 3s-1.34 3-3 3-3-1.34-3-3 1.34-3 3-3zm6 12H6v-1.4c0-2 4-3.1 6-3.1s6 1.1 6 3.1V19z"/></symbol>
    <symbol id="award" fill="currentColor"  viewBox="0 0 24 24"><path d="M0 0h24v24H0z" fill="none"/><path d="M5 13.18v4L12 21l7-3.82v-4L12 17l-7-3.82zM12 3L1 9l11 6 9-4.91V17h2V9L12 3z"/></symbol>
    <symbol id="birthday" fill="currentColor"  viewBox="0 0 24 24" ><path d="M0 0h24v24H0V0z" fill="none"/><path d="M12 6c1.11 0 2-.9 2-2 0-.38-.1-.73-.29-1.03L12 0l-1.71 2.97c-.19.3-.29.65-.29 1.03 0 1.1.9 2 2 2zm4.53 9.92l-1-1-1.08 1.07c-1.3 1.3-3.58 1.31-4.89 0l-1.07-1.07-1.09 1.07C6.75 16.64 5.88 17 4.96 17c-.73 0-1.4-.23-1.96-.61V22h18v-5.61c-.75.51-1.71.75-2.74.52-.66-.14-1.25-.51-1.73-.99zM18 9h-5V7h-2v2H6c-1.66 0-3 1.34-3 3v1.54c0 1.08.88 1.96 1.96 1.96.52 0 1.02-.2 1.38-.57l2.14-2.13 2.13 2.13c.74.74 2.03.74 2.77 0l2.14-2.13 2.13 2.13c.37.37.86.57 1.38.57 1.08 0 1.96-.88 1.96-1.96V12C21 10.34 19.66 9 18 9z"/></symbol>
    <symbol id="business" fill="currentColor" viewBox="0 0 24 24" ><path d="M0 0h24v24H0z" fill="none"/><path d="M12 7V3H2v18h20V7H12zM6 19H4v-2h2v2zm0-4H4v-2h2v2zm0-4H4V9h2v2zm0-4H4V5h2v2zm4 12H8v-2h2v2zm0-4H8v-2h2v2zm0-4H8V9h2v2zm0-4H8V5h2v2zm10 12h-8v-2h2v-2h-2v-2h2v-2h-2V9h8v10zm-2-8h-2v2h2v-2zm0 4h-2v2h2v-2z"/></symbol>
    <symbol id="campaign" fill="currentColor" viewBox="0 0 24 24"><path d="M0 0h24v24H0z" fill="none"/><path d="M18 11v2h4v-2h-4zm-2 6.61c.96.71 2.21 1.65 3.2 2.39.4-.53.8-1.07 1.2-1.6-.99-.74-2.24-1.68-3.2-2.4-.4.54-.8 1.08-1.2 1.61zM20.4 5.6c-.4-.53-.8-1.07-1.2-1.6-.99.74-2.24 1.68-3.2 2.4.4.53.8 1.07 1.2 1.6.96-.72 2.21-1.65 3.2-2.4zM4 9c-1.1 0-2 .9-2 2v2c0 1.1.9 2 2 2h1v4h2v-4h1l5 3V6L8 9H4zm11.5 3c0-1.33-.58-2.53-1.5-3.35v6.69c.92-.81 1.5-2.01 1.5-3.34z"/></symbol>
    <symbol id="char" fill="currentColor" enable-background="new 0 0 24 24" viewBox="0 0 24 24" ><rect fill="none" height="24" width="24"/><g><path d="M14.06,9.94L12,9l2.06-0.94L15,6l0.94,2.06L18,9l-2.06,0.94L15,12L14.06,9.94z M4,14l0.94-2.06L7,11l-2.06-0.94L4,8 l-0.94,2.06L1,11l2.06,0.94L4,14z M8.5,9l1.09-2.41L12,5.5L9.59,4.41L8.5,2L7.41,4.41L5,5.5l2.41,1.09L8.5,9z M4.5,20.5l6-6.01l4,4 L23,8.93l-1.41-1.41l-7.09,7.97l-4-4L3,19L4.5,20.5z"/></g></symbol>
    <symbol  id="check-list" fill="currentColor" enable-background="new 0 0 24 24" viewBox="0 0 24 24"><g><rect fill="none" height="24" width="24"/></g><g><g><path d="M20,3H4C2.9,3,2,3.9,2,5v14c0,1.1,0.9,2,2,2h16c1.1,0,2-0.9,2-2V5 C22,3.9,21.1,3,20,3z M10,17H5v-2h5V17z M10,13H5v-2h5V13z M10,9H5V7h5V9z M14.82,15L12,12.16l1.41-1.41l1.41,1.42L17.99,9 l1.42,1.42L14.82,15z" fill-rule="evenodd"/></g></g></symbol>
    <symbol id="close" fill="currentColor" viewBox="0 0 24 24" ><path d="M0 0h24v24H0z" fill="none"/><path d="M19 6.41L17.59 5 12 10.59 6.41 5 5 6.41 10.59 12 5 17.59 6.41 19 12 13.41 17.59 19 19 17.59 13.41 12z"/></symbol>
    <symbol id="contact" fill="currentColor" viewBox="0 0 24 24"><path d="M0 0h24v24H0zm0 0h24v24H0zm0 0h24v24H0z" fill="none"/><path d="M20 0H4v2h16V0zM4 24h16v-2H4v2zM20 4H4c-1.1 0-2 .9-2 2v12c0 1.1.9 2 2 2h16c1.1 0 2-.9 2-2V6c0-1.1-.9-2-2-2zm-8 2.75c1.24 0 2.25 1.01 2.25 2.25s-1.01 2.25-2.25 2.25S9.75 10.24 9.75 9 10.76 6.75 12 6.75zM17 17H7v-1.5c0-1.67 3.33-2.5 5-2.5s5 .83 5 2.5V17z"/></symbol>
    <symbol id="contact-mail" fill="currentColor" viewBox="0 0 24 24"><path d="M0 0h24v24H0z" fill="none"/><path d="M0 0h24v24H0z" fill="none"/><path d="M21 8V7l-3 2-3-2v1l3 2 3-2zm1-5H2C.9 3 0 3.9 0 5v14c0 1.1.9 2 2 2h20c1.1 0 1.99-.9 1.99-2L24 5c0-1.1-.9-2-2-2zM8 6c1.66 0 3 1.34 3 3s-1.34 3-3 3-3-1.34-3-3 1.34-3 3-3zm6 12H2v-1c0-2 4-3.1 6-3.1s6 1.1 6 3.1v1zm8-6h-8V6h8v6z"/></symbol>
    <symbol id="contact-phone" fill="currentColor" viewBox="0 0 24 24"><path d="M0 0h24v24H0z" fill="none"/><path d="M22 3H2C.9 3 0 3.9 0 5v14c0 1.1.9 2 2 2h20c1.1 0 1.99-.9 1.99-2L24 5c0-1.1-.9-2-2-2zM8 6c1.66 0 3 1.34 3 3s-1.34 3-3 3-3-1.34-3-3 1.34-3 3-3zm6 12H2v-1c0-2 4-3.1 6-3.1s6 1.1 6 3.1v1zm3.85-4h1.64L21 16l-1.99 1.99c-1.31-.98-2.28-2.38-2.73-3.99-.18-.64-.28-1.31-.28-2s.1-1.36.28-2c.45-1.62 1.42-3.01 2.73-3.99L21 8l-1.51 2h-1.64c-.22.63-.35 1.3-.35 2s.13 1.37.35 2z"/></symbol>
    <symbol id="dangerous" fill="currentColor"   viewBox="0 0 24 24" ><path d="M0 0h24v24H0z" fill="none"/><path d="M15.73 3H8.27L3 8.27v7.46L8.27 21h7.46L21 15.73V8.27L15.73 3zM17 15.74L15.74 17 12 13.26 8.26 17 7 15.74 10.74 12 7 8.26 8.26 7 12 10.74 15.74 7 17 8.26 13.26 12 17 15.74z"/></symbol>
    <symbol id="dashboard" fill="currentColor"  viewBox="0 0 24 24" ><path d="M0 0h24v24H0z" fill="none"/><path d="M3 13h8V3H3v10zm0 8h8v-6H3v6zm10 0h8V11h-8v10zm0-18v6h8V3h-8z"/></symbol>
    <symbol id="delete" fill="currentColor"  viewBox="0 0 24 24" ><path d="M6 19c0 1.1.9 2 2 2h8c1.1 0 2-.9 2-2V7H6v12zM19 4h-3.5l-1-1h-5l-1 1H5v2h14V4z"/></symbol>
    <symbol id="edit" fill="currentColor" enable-background="new 0 0 24 24"  viewBox="0 0 24 24" ><rect fill="none" height="24" width="24"/><path d="M22,24H2v-4h20V24z M13.06,5.19l3.75,3.75L7.75,18H4v-3.75L13.06,5.19z M17.88,7.87l-3.75-3.75 l1.83-1.83c0.39-0.39,1.02-0.39,1.41,0l2.34,2.34c0.39,0.39,0.39,1.02,0,1.41L17.88,7.87z" /></symbol>
    <symbol id="expand-down" fill="currentColor" viewBox="0 0 24 24" ><path d="M0 0h24v24H0z" fill="none"/><path d="M16.59 8.59L12 13.17 7.41 8.59 6 10l6 6 6-6z"/></symbol>
    <symbol id="expand-right" fill="currentColor" viewBox="0 0 24 24" ><path d="M0 0h24v24H0z" fill="none"/><path d="M10 6L8.59 7.41 13.17 12l-4.58 4.59L10 18l6-6z"/></symbol>
    <symbol id="eye" fill="currentColor" viewBox="0 0 24 24" ><path d="M0 0h24v24H0z" fill="none"/><path d="M12 4.5C7 4.5 2.73 7.61 1 12c1.73 4.39 6 7.5 11 7.5s9.27-3.11 11-7.5c-1.73-4.39-6-7.5-11-7.5zM12 17c-2.76 0-5-2.24-5-5s2.24-5 5-5 5 2.24 5 5-2.24 5-5 5zm0-8c-1.66 0-3 1.34-3 3s1.34 3 3 3 3-1.34 3-3-1.34-3-3-3z"/></symbol>
    <symbol id="event" fill="currentColor" viewBox="0 0 16 16"><path d="M14 0H2a2 2 0 0 0-2 2v12a2 2 0 0 0 2 2h12a2 2 0 0 0 2-2V2a2 2 0 0 0-2-2zM1 3.857C1 3.384 1.448 3 2 3h12c.552 0 1 .384 1 .857v10.286c0 .473-.448.857-1 .857H2c-.552 0-1-.384-1-.857V3.857z"/><path d="M6.5 7a1 1 0 1 0 0-2 1 1 0 0 0 0 2zm3 0a1 1 0 1 0 0-2 1 1 0 0 0 0 2zm3 0a1 1 0 1 0 0-2 1 1 0 0 0 0 2zm-9 3a1 1 0 1 0 0-2 1 1 0 0 0 0 2zm3 0a1 1 0 1 0 0-2 1 1 0 0 0 0 2zm3 0a1 1 0 1 0 0-2 1 1 0 0 0 0 2zm3 0a1 1 0 1 0 0-2 1 1 0 0 0 0 2zm-9 3a1 1 0 1 0 0-2 1 1 0 0 0 0 2zm3 0a1 1 0 1 0 0-2 1 1 0 0 0 0 2zm3 0a1 1 0 1 0 0-2 1 1 0 0 0 0 2z"/></symbol>
    <symbol id="filter" fill="currentColor" enable-background="new 0 0 24 24" viewBox="0 0 24 24"><g><path d="M0,0h24 M24,24H0" fill="none"/><path d="M7,6h10l-5.01,6.3L7,6z M4.25,5.61C6.27,8.2,10,13,10,13v6c0,0.55,0.45,1,1,1h2c0.55,0,1-0.45,1-1v-6 c0,0,3.72-4.8,5.74-7.39C20.25,4.95,19.78,4,18.95,4H5.04C4.21,4,3.74,4.95,4.25,5.61z"/><path d="M0,0h24v24H0V0z" fill="none"/></g></symbol>
    <symbol id="filter-full" fill="currentColor" enable-background="new 0 0 24 24" viewBox="0 0 24 24"><g><path d="M0,0h24 M24,24H0" fill="none"/><path d="M4.25,5.61C6.27,8.2,10,13,10,13v6c0,0.55,0.45,1,1,1h2c0.55,0,1-0.45,1-1v-6c0,0,3.72-4.8,5.74-7.39 C20.25,4.95,19.78,4,18.95,4H5.04C4.21,4,3.74,4.95,4.25,5.61z"/><path d="M0,0h24v24H0V0z" fill="none"/></g></symbol>
    <symbol id="gender" fill="currentColor" enable-background="new 0 0 24 24" viewBox="0 0 24 24"><rect fill="none" height="24" width="24"/><path d="M12,8c1.93,0,3.5,1.57,3.5,3.5S13.93,15,12,15s-3.5-1.57-3.5-3.5S10.07,8,12,8z M16.53,8.38l3.97-3.96V7h2V1h-6v2h2.58 l-3.97,3.97C14.23,6.36,13.16,6,12,6c-1.16,0-2.23,0.36-3.11,0.97L8.24,6.32l1.41-1.41L8.24,3.49L6.82,4.9L4.92,3H7.5V1h-6v6h2V4.42 l1.91,1.9L3.99,7.74l1.41,1.41l1.41-1.41l0.65,0.65C6.86,9.27,6.5,10.34,6.5,11.5c0,2.7,1.94,4.94,4.5,5.41L11,19H9v2h2v2h2v-2h2v-2 h-2l0-2.09c2.56-0.47,4.5-2.71,4.5-5.41C17.5,10.34,17.14,9.27,16.53,8.38z"/></symbol>
    <symbol  id="group" fill="currentColor" enable-background="new 0 0 24 24"  viewBox="0 0 24 24"><rect fill="none" height="24" width="24"/><g><path d="M12,12.75c1.63,0,3.07,0.39,4.24,0.9c1.08,0.48,1.76,1.56,1.76,2.73L18,18H6l0-1.61c0-1.18,0.68-2.26,1.76-2.73 C8.93,13.14,10.37,12.75,12,12.75z M4,13c1.1,0,2-0.9,2-2c0-1.1-0.9-2-2-2s-2,0.9-2,2C2,12.1,2.9,13,4,13z M5.13,14.1 C4.76,14.04,4.39,14,4,14c-0.99,0-1.93,0.21-2.78,0.58C0.48,14.9,0,15.62,0,16.43V18l4.5,0v-1.61C4.5,15.56,4.73,14.78,5.13,14.1z M20,13c1.1,0,2-0.9,2-2c0-1.1-0.9-2-2-2s-2,0.9-2,2C18,12.1,18.9,13,20,13z M24,16.43c0-0.81-0.48-1.53-1.22-1.85 C21.93,14.21,20.99,14,20,14c-0.39,0-0.76,0.04-1.13,0.1c0.4,0.68,0.63,1.46,0.63,2.29V18l4.5,0V16.43z M12,6c1.66,0,3,1.34,3,3 c0,1.66-1.34,3-3,3s-3-1.34-3-3C9,7.34,10.34,6,12,6z"/></g></symbol>
    <symbol id="home" fill="currentColor" viewBox="0 0 24 24" ><path d="M0 0h24v24H0z" fill="none"/><path d="M10 20v-6h4v6h5v-8h3L12 3 2 12h3v8z"/></symbol>
    <symbol id="launch" fill="currentColor" viewBox="0 0 24 24" ><path d="M0 0h24v24H0z" fill="none"/><path d="M19 19H5V5h7V3H5c-1.11 0-2 .9-2 2v14c0 1.1.89 2 2 2h14c1.1 0 2-.9 2-2v-7h-2v7zM14 3v2h3.59l-9.83 9.83 1.41 1.41L19 6.41V10h2V3h-7z"/></symbol>
    <symbol id="list" fill="currentColor" viewBox="0 0 24 24" ><path d="M0 0h24v24H0V0z" fill="none"/><path d="M4 10.5c-.83 0-1.5.67-1.5 1.5s.67 1.5 1.5 1.5 1.5-.67 1.5-1.5-.67-1.5-1.5-1.5zm0-6c-.83 0-1.5.67-1.5 1.5S3.17 7.5 4 7.5 5.5 6.83 5.5 6 4.83 4.5 4 4.5zm0 12c-.83 0-1.5.68-1.5 1.5s.68 1.5 1.5 1.5 1.5-.68 1.5-1.5-.67-1.5-1.5-1.5zM7 19h14v-2H7v2zm0-6h14v-2H7v2zm0-8v2h14V5H7z"/></symbol>
    <symbol id="location" fill="currentColor" viewBox="0 0 24 24" ><path d="M0 0h24v24H0z" fill="none"/><path d="M18 8c0-3.31-2.69-6-6-6S6 4.69 6 8c0 4.5 6 11 6 11s6-6.5 6-11zm-8 0c0-1.1.9-2 2-2s2 .9 2 2-.89 2-2 2c-1.1 0-2-.9-2-2zM5 20v2h14v-2H5z"/></symbol>
    <symbol id="menu" fill="currentColor" viewBox="0 0 24 24" ><path d="M0 0h24v24H0z" fill="none"/><path d="M3 18h18v-2H3v2zm0-5h18v-2H3v2zm0-7v2h18V6H3z"/></symbol>
    <symbol id="minimize" fill="currentColor" viewBox="0 0 24 24"><path d="M0 0h24v24H0V0z" fill="none"/><path d="M6 19h12v2H6z"/></symbol>
    <symbol id="more" fill="currentColor" viewBox="0 0 24 24" ><path d="M0 0h24v24H0V0z" fill="none"/><path d="M6 10c-1.1 0-2 .9-2 2s.9 2 2 2 2-.9 2-2-.9-2-2-2zm12 0c-1.1 0-2 .9-2 2s.9 2 2 2 2-.9 2-2-.9-2-2-2zm-6 0c-1.1 0-2 .9-2 2s.9 2 2 2 2-.9 2-2-.9-2-2-2z"/></symbol>
    <symbol id="navigation" fill="currentColor" viewBox="0 0 24 24"><path d="M0 0h24v24H0z" fill="none"/><path d="M12 2L4.5 20.29l.71.71L12 18l6.79 3 .71-.71z"/></symbol>
    <symbol id="next" enable-background="new 0 0 24 24" viewBox="0 0 24 24"  fill="currentColor"><g><rect fill="none" height="24" width="24"/></g><g><g><polygon points="15.5,5 11,5 16,12 11,19 15.5,19 20.5,12"/><polygon points="8.5,5 4,5 9,12 4,19 8.5,19 13.5,12"/></g></g></symbol>
    <symbol id="person" fill="currentColor" viewBox="0 0 24 24" ><path d="M0 0h24v24H0z" fill="none"/><path d="M12 12c2.21 0 4-1.79 4-4s-1.79-4-4-4-4 1.79-4 4 1.79 4 4 4zm0 2c-2.67 0-8 1.34-8 4v2h16v-2c0-2.66-5.33-4-8-4z"/></symbol>
    <symbol id="person-search" fill="currentColor"  enable-background="new 0 0 24 24" viewBox="0 0 24 24" ><g><rect fill="none" height="24" width="24"/></g><g><g><circle cx="10" cy="8" r="4"/><path d="M10.35,14.01C7.62,13.91,2,15.27,2,18v2h9.54C9.07,17.24,10.31,14.11,10.35,14.01z"/><path d="M19.43,18.02C19.79,17.43,20,16.74,20,16c0-2.21-1.79-4-4-4s-4,1.79-4,4c0,2.21,1.79,4,4,4c0.74,0,1.43-0.22,2.02-0.57 L20.59,22L22,20.59L19.43,18.02z M16,18c-1.1,0-2-0.9-2-2c0-1.1,0.9-2,2-2s2,0.9,2,2C18,17.1,17.1,18,16,18z"/></g></g></symbol>
    <symbol id="people" fill="currentColor" viewBox="0 0 24 24" ><path d="M0 0h24v24H0z" fill="none"/><path d="M16 11c1.66 0 2.99-1.34 2.99-3S17.66 5 16 5c-1.66 0-3 1.34-3 3s1.34 3 3 3zm-8 0c1.66 0 2.99-1.34 2.99-3S9.66 5 8 5C6.34 5 5 6.34 5 8s1.34 3 3 3zm0 2c-2.33 0-7 1.17-7 3.5V19h14v-2.5c0-2.33-4.67-3.5-7-3.5zm8 0c-.29 0-.62.02-.97.05 1.16.84 1.97 1.97 1.97 3.45V19h6v-2.5c0-2.33-4.67-3.5-7-3.5z"/></symbol>
    <symbol id="prev" enable-background="new 0 0 24 24" viewBox="0 0 24 24"  fill="currentColor" ><g ><rect fill="none" height="24" width="24"/></g><g><g><polygon points="15.5,5 11,5 16,12 11,19 15.5,19 20.5,12" transform="scale(-1,1) translate(-24,0)"/><polygon points="8.5,5 4,5 9,12 4,19 8.5,19 13.5,12" transform="scale(-1,1) translate(-24,0)" /></g></g></symbol>
    <symbol id="price" fill="currentColor" viewBox="0 0 24 24"><path d="M0 0h24v24H0V0z" fill="none"/><path d="M12 2C6.48 2 2 6.48 2 12s4.48 10 10 10 10-4.48 10-10S17.52 2 12 2zm0 18c-4.41 0-8-3.59-8-8s3.59-8 8-8 8 3.59 8 8-3.59 8-8 8zm.31-8.86c-1.77-.45-2.34-.94-2.34-1.67 0-.84.79-1.43 2.1-1.43 1.38 0 1.9.66 1.94 1.64h1.71c-.05-1.34-.87-2.57-2.49-2.97V5H10.9v1.69c-1.51.32-2.72 1.3-2.72 2.81 0 1.79 1.49 2.69 3.66 3.21 1.95.46 2.34 1.15 2.34 1.87 0 .53-.39 1.39-2.1 1.39-1.6 0-2.23-.72-2.32-1.64H8.04c.1 1.7 1.36 2.66 2.86 2.97V19h2.34v-1.67c1.52-.29 2.72-1.16 2.73-2.77-.01-2.2-1.9-2.96-3.66-3.42z"/></symbol>
    <symbol id="power" fill="currentColor" viewBox="0 0 24 24"><path d="M0 0h24v24H0z" fill="none"/><path d="M13 3h-2v10h2V3zm4.83 2.17l-1.42 1.42C17.99 7.86 19 9.81 19 12c0 3.87-3.13 7-7 7s-7-3.13-7-7c0-2.19 1.01-4.14 2.58-5.42L6.17 5.17C4.23 6.82 3 9.26 3 12c0 4.97 4.03 9 9 9s9-4.03 9-9c0-2.74-1.23-5.18-3.17-6.83z"/></symbol>
    <symbol id="radio" fill="currentColor" viewBox="0 0 24 24" ><path d="M0 0h24v24H0V0z" fill="none"/><path d="M12 2C6.48 2 2 6.48 2 12s4.48 10 10 10 10-4.48 10-10S17.52 2 12 2zm0 18c-4.42 0-8-3.58-8-8s3.58-8 8-8 8 3.58 8 8-3.58 8-8 8z"/></symbol>
    <symbol id="radio-checked" fill="currentColor" viewBox="0 0 24 24"><path d="M0 0h24v24H0V0z" fill="none"/><path d="M12 2C6.48 2 2 6.48 2 12s4.48 10 10 10 10-4.48 10-10S17.52 2 12 2zm0 18c-4.42 0-8-3.58-8-8s3.58-8 8-8 8 3.58 8 8-3.58 8-8 8z"/><circle cx="12" cy="12" r="5"/></symbol>
    <symbol id="refresh" fill="currentColor" viewBox="0 0 24 24"><path d="M0 0h24v24H0z" fill="none"/><path d="M17.65 6.35C16.2 4.9 14.21 4 12 4c-4.42 0-7.99 3.58-7.99 8s3.57 8 7.99 8c3.73 0 6.84-2.55 7.73-6h-2.08c-.82 2.33-3.04 4-5.65 4-3.31 0-6-2.69-6-6s2.69-6 6-6c1.66 0 3.14.69 4.22 1.78L13 11h7V4l-2.35 2.35z"/></symbol>
    <symbol id="rsync" fill="currentColor" enable-background="new 0 0 24 24" viewBox="0 0 24 24" ><g><rect fill="none" height="24" width="24"/></g><g><g/><g><path d="M22,8l-4-4v3H3v2h15v3L22,8z"/><path d="M2,16l4,4v-3h15v-2H6v-3L2,16z"/></g></g></symbol>
    <symbol id="search" fill="currentColor"  viewBox="0 0 16 16"><path d="M11.742 10.344a6.5 6.5 0 1 0-1.397 1.398h-.001c.03.04.062.078.098.115l3.85 3.85a1 1 0 0 0 1.415-1.414l-3.85-3.85a1.007 1.007 0 0 0-.115-.1zM12 6.5a5.5 5.5 0 1 1-11 0 5.5 5.5 0 0 1 11 0z"/></symbol>
    <symbol id="security" fill="currentColor" viewBox="0 0 24 24" ><path d="M0 0h24v24H0z" fill="none"/><path d="M12 1L3 5v6c0 5.55 3.84 10.74 9 12 5.16-1.26 9-6.45 9-12V5l-9-4zm0 10.99h7c-.53 4.12-3.28 7.79-7 8.94V12H5V6.3l7-3.11v8.8z"/></symbol>
    <symbol id="send" fill="currentColor" viewBox="0 0 24 24"><path d="M0 0h24v24H0z" fill="none"/><path d="M2.01 21L23 12 2.01 3 2 10l15 2-15 2z"/></symbol>
    <symbol id="setting" fill="currentColor" enable-background="new 0 0 24 24"  viewBox="0 0 24 24" ><g><path d="M0,0h24v24H0V0z" fill="none"/><path d="M19.14,12.94c0.04-0.3,0.06-0.61,0.06-0.94c0-0.32-0.02-0.64-0.07-0.94l2.03-1.58c0.18-0.14,0.23-0.41,0.12-0.61 l-1.92-3.32c-0.12-0.22-0.37-0.29-0.59-0.22l-2.39,0.96c-0.5-0.38-1.03-0.7-1.62-0.94L14.4,2.81c-0.04-0.24-0.24-0.41-0.48-0.41 h-3.84c-0.24,0-0.43,0.17-0.47,0.41L9.25,5.35C8.66,5.59,8.12,5.92,7.63,6.29L5.24,5.33c-0.22-0.08-0.47,0-0.59,0.22L2.74,8.87 C2.62,9.08,2.66,9.34,2.86,9.48l2.03,1.58C4.84,11.36,4.8,11.69,4.8,12s0.02,0.64,0.07,0.94l-2.03,1.58 c-0.18,0.14-0.23,0.41-0.12,0.61l1.92,3.32c0.12,0.22,0.37,0.29,0.59,0.22l2.39-0.96c0.5,0.38,1.03,0.7,1.62,0.94l0.36,2.54 c0.05,0.24,0.24,0.41,0.48,0.41h3.84c0.24,0,0.44-0.17,0.47-0.41l0.36-2.54c0.59-0.24,1.13-0.56,1.62-0.94l2.39,0.96 c0.22,0.08,0.47,0,0.59-0.22l1.92-3.32c0.12-0.22,0.07-0.47-0.12-0.61L19.14,12.94z M12,15.6c-1.98,0-3.6-1.62-3.6-3.6 s1.62-3.6,3.6-3.6s3.6,1.62,3.6,3.6S13.98,15.6,12,15.6z"/></g></symbol>
    <symbol id="setting-suggest" fill="currentColor" enable-background="new 0 0 24 24" viewBox="0 0 24 24" ><rect fill="none" height="24" width="24"/><g><path d="M17.41,6.59L15,5.5l2.41-1.09L18.5,2l1.09,2.41L22,5.5l-2.41,1.09L18.5,9L17.41,6.59z M21.28,12.72L20.5,11l-0.78,1.72 L18,13.5l1.72,0.78L20.5,16l0.78-1.72L23,13.5L21.28,12.72z M16.24,14.37l1.94,1.47l-2.5,4.33l-2.24-0.94 c-0.2,0.13-0.42,0.26-0.64,0.37L12.5,22h-5l-0.3-2.41c-0.22-0.11-0.43-0.23-0.64-0.37l-2.24,0.94l-2.5-4.33l1.94-1.47 C3.75,14.25,3.75,14.12,3.75,14s0-0.25,0.01-0.37l-1.94-1.47l2.5-4.33l2.24,0.94c0.2-0.13,0.42-0.26,0.64-0.37L7.5,6h5l0.3,2.41 c0.22,0.11,0.43,0.23,0.64,0.37l2.24-0.94l2.5,4.33l-1.94,1.47c0.01,0.12,0.01,0.24,0.01,0.37S16.25,14.25,16.24,14.37z M13,14 c0-1.66-1.34-3-3-3s-3,1.34-3,3s1.34,3,3,3S13,15.66,13,14z"/></g></symbol>
    <symbol id="star" fill="currentColor" enable-background="new 0 0 24 24" viewBox="0 0 24 24" ><g><g><path d="M0,0h24v24H0V0z" fill="none"/></g></g><g><path d="M12,8.89L12.94,12h2.82l-2.27,1.62l0.93,3.01L12,14.79l-2.42,1.84l0.93-3.01L8.24,12h2.82L12,8.89 M12,2l-2.42,8H2 l6.17,4.41L5.83,22L12,17.31L18.18,22l-2.35-7.59L22,10h-7.58L12,2L12,2z"/></g></symbol>
    <symbol id="translate" fill="currentColor" viewBox="0 0 24 24" ><path d="M21 4H11l-1-3H3c-1.1 0-2 .9-2 2v15c0 1.1.9 2 2 2h8l1 3h9c1.1 0 2-.9 2-2V6c0-1.1-.9-2-2-2zM7 16c-2.76 0-5-2.24-5-5s2.24-5 5-5c1.35 0 2.48.5 3.35 1.3L9.03 8.57c-.38-.36-1.04-.78-2.03-.78-1.74 0-3.15 1.44-3.15 3.21S5.26 14.21 7 14.21c2.01 0 2.84-1.44 2.92-2.41H7v-1.71h4.68c.07.31.12.61.12 1.02C11.8 13.97 9.89 16 7 16zm6.17-5.42h3.7c-.43 1.25-1.11 2.43-2.05 3.47-.31-.35-.6-.72-.86-1.1l-.79-2.37zm8.33 9.92c0 .55-.45 1-1 1H14l2-2.5-1.04-3.1 3.1 3.1.92-.92-3.3-3.25.02-.02c1.13-1.25 1.93-2.69 2.4-4.22H20v-1.3h-4.53V8h-1.29v1.29h-1.44L11.46 5.5h9.04c.55 0 1 .45 1 1v14z"/><path d="M0 0h24v24H0zm0 0h24v24H0z" fill="none"/></symbol>
    <symbol id="toggle-off" fill="currentColor" viewBox="0 0 24 24"><path d="M0 0h24v24H0V0z" fill="none"/><path d="M17 6H7c-3.31 0-6 2.69-6 6s2.69 6 6 6h10c3.31 0 6-2.69 6-6s-2.69-6-6-6zm0 10H7c-2.21 0-4-1.79-4-4s1.79-4 4-4h10c2.21 0 4 1.79 4 4s-1.79 4-4 4zM7 9c-1.66 0-3 1.34-3 3s1.34 3 3 3 3-1.34 3-3-1.34-3-3-3z"/></symbol>
    <symbol id="toggle-on" fill="currentColor" viewBox="0 0 24 24"><path d="M0 0h24v24H0z" fill="none"/><path d="M17 6H7c-3.31 0-6 2.69-6 6s2.69 6 6 6h10c3.31 0 6-2.69 6-6s-2.69-6-6-6zm0 10H7c-2.21 0-4-1.79-4-4s1.79-4 4-4h10c2.21 0 4 1.79 4 4s-1.79 4-4 4zm0-7c-1.66 0-3 1.34-3 3s1.34 3 3 3 3-1.34 3-3-1.34-3-3-3z"/></symbol>
    <symbol id="verified"  viewBox="0 0 24 24"  fill="currentColor"><path d="M0 0h24v24H0V0z" fill="none"/><path d="M12 1L3 5v6c0 5.55 3.84 10.74 9 12 5.16-1.26 9-6.45 9-12V5l-9-4zm7 10c0 4.52-2.98 8.69-7 9.93-4.02-1.24-7-5.41-7-9.93V6.3l7-3.11 7 3.11V11zm-11.59.59L6 13l4 4 8-8-1.41-1.42L10 14.17z"/></symbol>
    <symbol id="web" fill="currentColor" viewBox="0 0 24 24" ><path d="M0 0h24v24H0z" fill="none"/><path d="M11.99 2C6.47 2 2 6.48 2 12s4.47 10 9.99 10C17.52 22 22 17.52 22 12S17.52 2 11.99 2zm6.93 6h-2.95c-.32-1.25-.78-2.45-1.38-3.56 1.84.63 3.37 1.91 4.33 3.56zM12 4.04c.83 1.2 1.48 2.53 1.91 3.96h-3.82c.43-1.43 1.08-2.76 1.91-3.96zM4.26 14C4.1 13.36 4 12.69 4 12s.1-1.36.26-2h3.38c-.08.66-.14 1.32-.14 2 0 .68.06 1.34.14 2H4.26zm.82 2h2.95c.32 1.25.78 2.45 1.38 3.56-1.84-.63-3.37-1.9-4.33-3.56zm2.95-8H5.08c.96-1.66 2.49-2.93 4.33-3.56C8.81 5.55 8.35 6.75 8.03 8zM12 19.96c-.83-1.2-1.48-2.53-1.91-3.96h3.82c-.43 1.43-1.08 2.76-1.91 3.96zM14.34 14H9.66c-.09-.66-.16-1.32-.16-2 0-.68.07-1.35.16-2h4.68c.09.65.16 1.32.16 2 0 .68-.07 1.34-.16 2zm.25 5.56c.6-1.11 1.06-2.31 1.38-3.56h2.95c-.96 1.65-2.49 2.93-4.33 3.56zM16.36 14c.08-.66.14-1.32.14-2 0-.68-.06-1.34-.14-2h3.38c.16.64.26 1.31.26 2s-.1 1.36-.26 2h-3.38z"/></symbol>
</svg>
